# xmcd CD database file
#
# Track frame offsets:
#	150
#	16620
#	35105
#	51631
#	68064
#	82849
#	100808
#	117364
#	138339
#	152695
#	170159
#	187403
#	212549
#	235756
#	260524
#	277933
#	301177
#	323100
#
# Disc length: 4526 seconds
#
# Revision: 1
# Processed by: cddbd v1.5.2PL0 Copyright (c) Steve Scherf et al.
# Submitted via: CDex 1.70beta2
#
DISCID=f911ac12
DTITLE=Various Artist - Various Artists - Electro Swing Revolution, Vol. 3, CD2
DYEAR=2012
DGENRE=Swing
TTITLE0=Bart and Baker pres. Pierre Santini and Lada Redstar - Allez Viens (Via Con Me)
TTITLE1=5 In Love and Cab Canavaral - Swing What You Got (Cab Canavaral Remix)
TTITLE2=Savages Y Suefo - Black Cat Jive
TTITLE3=O'Day, Anita - Peanut Vendor (Club Des Belugas Remix)
TTITLE4=Vujicic, Nikola, vs. Baunzz - Tears No More
TTITLE5=Kojato and The Afro Latin Cougaritas - Like A Gypsy
TTITLE6=Deladap - Crazy Swing
TTITLE7=Johnson, Charlie and His Paradise Band - The Boy In The Boat (Minimatic Remix)
TTITLE8=Reefer, Frank and Joey Viper - Mambo No. 5
TTITLE9=Dirty Honkers - Club Cats
TTITLE10=Skeewiff - Light Up
TTITLE11=Shemian - Happy Swingin
TTITLE12=Stelar - Parov - The Paris Swingbox
TTITLE13=Swingrowers - Senza Ciatu
TTITLE14=Valice feat. Carolyn Vox - Here Comes My Sun
TTITLE15=Kitten And The Hip - Don't You Worry
TTITLE16=Hampton, Lionel - It Don't Mean A Thing (If Ain't Got That Swing)(Jazz Reconstruction Club Mix)
TTITLE17=Dollar, Tommy - Balkan Betty (DJ Globulation and Robert Soko Remix)
EXTD=YEAR: 2012
EXTT0=
EXTT1=
EXTT2=
EXTT3=
EXTT4=
EXTT5=
EXTT6=
EXTT7=
EXTT8=
EXTT9=
EXTT10=
EXTT11=
EXTT12=
EXTT13=
EXTT14=
EXTT15=
EXTT16=
EXTT17=
PLAYORDER=
